<?xml version="1.0" standalone="no"?>
<!DOCTYPE svg PUBLIC "-//W3C//DTD SVG 20010904//EN"
 "http://www.w3.org/TR/2001/REC-SVG-20010904/DTD/svg10.dtd">
<svg version="1.0" xmlns="http://www.w3.org/2000/svg"
 height="200pt" viewBox="0 0 861.000000 732.000000"
 preserveAspectRatio="xMidYMid meet">
<defs>
<style>
    svg {
    --color-u: blue;
    }
</style>
</defs>
<metadata>
Created by potrace 1.16, written by Peter Selinger 2001-2019
</metadata>
<g transform="translate(0.000000,732.000000) scale(0.100000,-0.100000)"
fill="#000000" stroke="none">
<path d="M3791 7174 c-22 -28 -27 -54 -11 -54 6 0 10 6 10 13 0 18 27 53 35
45 4 -3 -1 -31 -11 -61 -21 -67 -14 -104 22 -113 14 -4 36 -2 49 4 15 7 26 8
30 2 9 -14 41 -12 53 3 15 17 26 67 15 67 -5 0 -14 -14 -20 -31 -23 -59 -31
-20 -12 53 23 90 23 88 1 88 -15 0 -22 -15 -36 -73 -18 -79 -29 -97 -59 -97
-21 0 -21 -4 -1 124 5 27 2 41 -7 47 -23 14 -36 10 -58 -17z"/>

<path fill="var(--color-u)" d="M4135 7085 c-3 -11 -19 -53 -34 -92 l-29 -73 29 0 29 0 0 -1668 c0
-1284 -3 -1671 -12 -1680 -9 -9 -482 -12 -2065 -12 -1362 0 -2053 -3 -2053
-10 0 -7 687 -10 2042 -10 l2043 0 -1459 -1459 c-1077 -1077 -1457 -1463
-1453 -1475 4 -9 14 -19 23 -23 12 -4 398 376 1475 1453 l1459 1459 0 -1748
c0 -1545 2 -1747 15 -1747 13 0 15 206 17 1768 l3 1767 1973 3 1972 2 0 -31
c0 -24 3 -29 13 -21 6 5 41 20 77 32 36 13 68 26 73 30 4 3 -19 14 -50 24 -32
10 -70 25 -85 32 -28 14 -28 14 -28 -16 l0 -30 -1957 0 -1958 0 1463 1463
1462 1462 -22 23 -23 22 -1457 -1457 -1458 -1458 0 1653 0 1652 26 0 c21 0 25
3 19 18 -5 9 -20 51 -36 92 -21 57 -29 70 -34 55z"/>

<path d="M4135 7085 c-3 -11 -19 -53 -34 -92 l-29 -73 29 0 29 0 0 -1680 0
-1680 -2065 0 c-1370 0 -2065 -3 -2065 -10 0 -7 695 -10 2065 -10 l2065 0 0
-1770 c0 -1567 2 -1770 15 -1770 13 0 15 203 15 1770 l0 1770 1975 0 1975 0 0
-31 c0 -24 3 -29 13 -21 6 5 41 20 77 32 36 13 68 26 73 30 4 3 -19 14 -50 24
-32 10 -70 25 -85 32 -28 14 -28 14 -28 -16 l0 -30 -1975 0 -1975 0 0 1680 0
1680 26 0 c21 0 25 3 19 18 -5 9 -20 51 -36 92 -21 57 -29 70 -34 55z"/>

<path fill="var(--color-u)" d="M6576 6888 c-17 -24 -21 -48 -8 -48 4 0 12 10 17 22 6 12 16 23 22
26 10 3 9 -7 -2 -38 -23 -64 -20 -98 10 -112 19 -8 31 -8 50 0 15 7 27 8 30 2
19 -31 71 9 62 48 -3 13 -7 11 -15 -10 -6 -16 -16 -28 -22 -28 -10 0 -7 28 11
84 13 42 11 66 -6 66 -8 0 -19 -17 -25 -42 -20 -77 -26 -91 -43 -102 -12 -8
-20 -7 -29 2 -9 9 -8 24 6 67 14 44 15 59 5 71 -17 21 -46 17 -63 -8z"/>
<path fill="var(--color-u)" d="M7300 6891 c-12 -24 -13 -51 -1 -51 5 0 12 11 15 25 6 22 26 36 26
18 -1 -29 -51 -198 -60 -201 -25 -9 -7 -22 30 -22 37 0 55 13 28 22 -7 3 -9
14 -4 31 5 23 10 26 36 21 25 -5 35 -1 65 29 28 28 35 43 35 74 0 59 -53 96
-88 61 -9 -9 -15 -9 -24 0 -18 18 -46 14 -58 -7z m133 -15 c14 -36 -29 -126
-60 -126 -21 0 -25 24 -13 69 16 60 59 94 73 57z"/>
<path fill="var(--color-u)" d="M6890 6870 c0 -6 50 -10 130 -10 80 0 130 4 130 10 0 6 -50 10 -130
10 -80 0 -130 -4 -130 -10z"/>
<path fill="var(--color-u)" d="M7499 6849 c-22 -22 -21 -44 2 -44 8 0 14 9 14 20 0 31 49 28 53 -4
3 -17 -9 -36 -44 -72 l-48 -49 61 0 c54 0 61 2 66 22 7 24 -3 41 -10 21 -3 -7
-16 -13 -30 -13 -24 0 -24 1 11 34 41 38 46 68 14 90 -31 22 -64 20 -89 -5z"/>
<path fill="var(--color-u)" d="M6890 6795 c0 -13 21 -15 130 -15 109 0 130 2 130 15 0 13 -21 15
-130 15 -109 0 -130 -2 -130 -15z"/>
<path d="M8106 3398 c-17 -24 -21 -58 -8 -58 4 0 14 15 21 33 24 58 25 2 1
-96 -16 -63 -29 -97 -44 -109 -21 -17 -20 -18 32 -18 28 0 52 5 52 10 0 6 -7
10 -16 10 -11 0 -14 5 -10 16 3 9 6 22 6 29 0 10 9 12 35 8 30 -5 39 -1 69 29
43 43 56 97 32 134 -23 34 -44 40 -76 22 -21 -12 -28 -12 -38 -1 -19 19 -39
16 -56 -9z m138 -43 c-1 -69 -47 -136 -75 -108 -17 17 -3 96 23 128 30 38 53
29 52 -20z"/>
<path d="M8325 3336 c-29 -29 -29 -49 0 -54 14 -3 17 1 13 22 -6 30 23 46 47
26 28 -23 17 -59 -36 -116 l-52 -54 65 0 c51 0 67 4 72 16 9 24 7 44 -4 44 -5
0 -10 -7 -10 -15 0 -10 -10 -15 -32 -15 l-33 0 43 39 c61 56 55 113 -15 127
-26 5 -37 1 -58 -20z"/>
</g>
</svg>
