<?xml version="1.0" encoding="UTF-8" standalone="no"?>
<!-- Created with Inkscape (http://www.inkscape.org/) -->

<svg
   version="1.1"
   id="svg62"
   width="300"
   height="300"
   viewBox="0 0 1001.5012 1022.1339"
   sodipodi:docname="ct-logo.png"
   xmlns:inkscape="http://www.inkscape.org/namespaces/inkscape"
   xmlns:sodipodi="http://sodipodi.sourceforge.net/DTD/sodipodi-0.dtd"
   xmlns="http://www.w3.org/2000/svg"
   xmlns:svg="http://www.w3.org/2000/svg">
  <defs
     id="defs66" />
  <sodipodi:namedview
     id="namedview64"
     pagecolor="#ffffff"
     bordercolor="#000000"
     borderopacity="0.25"
     inkscape:showpageshadow="2"
     inkscape:pageopacity="0.0"
     inkscape:pagecheckerboard="0"
     inkscape:deskcolor="#d1d1d1"
     showgrid="false" />
  <g
     inkscape:groupmode="layer"
     inkscape:label="Image"
     id="g68"
     transform="translate(-34.761121,-15.569162)">
    <path
       style="fill:#000000;stroke-width:2.77981"
       d="M 278.30885,1035.465 C 232.12754,1030.2531 196.65812,1017.6153 159.72187,993.21214 119.88908,966.89535 85.265619,924.95863 62.25815,875.16203 47.415948,843.03798 41.957637,823.14617 37.294596,784.18661 24.273259,675.39415 62.056563,562.76908 136.57471,488.25096 c 49.58422,-49.58423 102.80756,-75.47706 171.98686,-83.67045 22.14967,-2.62334 26.38798,-4.42627 19.48561,-8.28906 -12.04844,-6.74265 -32.40767,-26.37257 -45.7579,-44.11878 -32.21286,-42.82002 -43.87325,-82.4028 -37.96633,-128.88189 7.46787,-58.76174 34.68259,-107.71276 79.82987,-143.589623 53.94607,-42.868966 124.46362,-64.131996 212.68996,-64.131996 143.28639,0 256.13227,68.711717 289.11763,176.043399 10.82902,35.23674 12.21392,62.4254 6.99339,137.29736 -2.64163,37.88571 -4.98958,73.88676 -5.21773,80.00233 l -0.41477,11.11925 103.31935,1.38992 c 56.82565,0.76443 104.17505,2.24706 105.22105,3.29467 1.0459,1.04764 -0.028,7.92767 -2.3837,15.28896 -2.3569,7.3613 -6.9155,22.4533 -10.1302,33.5378 l -5.845,20.1536 h -96.89565 -96.89572 l -1.62828,13.20412 c -0.89557,7.26226 -2.40671,90.13533 -3.35813,184.1624 -1.52335,150.55069 -1.19429,173.77887 2.75648,194.58671 8.49112,44.72052 28.74464,72.91395 58.07815,80.84663 20.55213,5.55781 68.42776,-0.85021 98.5473,-13.19006 9.54515,-3.91056 19.18329,-6.40864 21.41797,-5.55093 2.23468,0.85749 6.64018,6.61066 9.78998,12.78477 7.2953,14.30002 5.0729,18.29962 -19.37476,34.86988 -33.88073,22.96343 -66.57038,34.70013 -112.88725,40.53003 -33.88004,4.2646 -57.87762,0.5098 -87.25901,-13.6531 -27.75676,-13.3796 -56.45952,-41.61898 -69.71669,-68.59141 l -9.5079,-19.34415 0.24822,-57.01358 c 0.13656,-31.35751 1.57672,-129.56668 3.20026,-218.2426 1.62357,-88.67594 2.37614,-162.16717 1.67248,-163.31383 -0.7037,-1.14669 -23.09665,-2.08488 -49.7621,-2.08488 -44.77621,0 -48.90764,-0.42501 -54.04222,-5.55959 -3.0578,-3.05779 -5.55964,-7.36627 -5.55964,-9.57434 0,-6.94819 11.95067,-17.25269 27.38179,-23.61005 51.24659,-21.11262 91.75627,-59.00394 105.92908,-99.0822 6.82245,-19.29281 14.02357,-63.82265 14.00847,-86.62516 -0.0251,-36.19158 -10.84357,-79.05478 -28.05947,-111.16062 C 694.51149,100.13356 647.0483,70.824517 571.01688,62.636298 484.18295,53.284692 399.93952,85.496087 350.39664,146.99286 c -26.61846,33.04124 -35.95027,61.03101 -35.95027,107.82954 0,38.2742 7.03842,67.41206 22.44507,92.91871 11.78691,19.51392 48.6096,57.00143 55.99054,57.00143 12.90474,0 52.52643,12.46232 72.29498,22.73909 27.14365,14.11084 54.02225,40.15437 65.83095,63.78563 10.04328,20.09837 10.72043,31.23268 2.99045,49.17066 -7.92985,18.40177 -19.98522,25.91961 -44.36054,27.66365 -16.85697,1.20612 -21.24676,0.45552 -34.03175,-5.81885 -19.81425,-9.72408 -32.65393,-22.88981 -48.22471,-49.44935 -16.84148,-28.72696 -36.86435,-50.57475 -51.93763,-56.67114 -15.20595,-6.15007 -51.72652,-8.41588 -72.60652,-4.50464 -35.14506,6.58342 -74.0393,32.11043 -97.38792,63.9176 -15.46609,21.06907 -28.62885,49.68657 -36.60505,79.58434 -6.57193,24.63399 -7.43076,33.01891 -7.54503,73.66498 -0.16324,58.05718 6.99958,91.73116 31.79061,149.45509 39.76645,92.59302 91.34107,136.33635 171.09071,145.11194 42.1619,4.63944 81.1062,0.20015 113.42606,-12.92654 26.23606,-10.65655 34.3535,-15.7408 60.33441,-37.78972 13.23222,-11.22964 16.74912,-12.98032 21.24365,-10.5749 7.75907,4.15252 19.88499,19.30316 19.88499,24.84507 0,6.77919 -31.16271,36.24199 -55.59618,52.5637 -69.46497,46.40245 -144.52726,65.05635 -225.16461,55.95585 z"
       id="path230" />
  </g>
</svg>
